<?xml version="1.0" encoding="utf-8"?>
<!-- Generator: Adobe Illustrator 24.0.1, SVG Export Plug-In . SVG Version: 6.00 Build 0)  -->
<svg fill="white" version="1.1" id="Layer_1" xmlns="http://www.w3.org/2000/svg" xmlns:xlink="http://www.w3.org/1999/xlink" x="0px" y="0px"
	 viewBox="0 0 49 50" style="enable-background:new 0 0 49 50;" xml:space="preserve">
<style type="text/css">
	.st0{fill:none;stroke:#ffffff;stroke-width:1.584;stroke-linecap:round;stroke-linejoin:round;}
	.st1{fill:none;stroke:#ffffff;stroke-width:1.584;}
</style>
<metadata>
Created by potrace 1.16, written by Peter Selinger 2001-2019
</metadata>
<g transform="translate(0.000000,3200.000000) scale(0.100000,-0.100000)"
fill="#000000" stroke="none">
<path d="M0 29430 c0 -1979 3 -2570 12 -2570 6 0 93 49 192 109 180 108 597
326 796 417 131 59 312 134 323 134 4 0 27 8 50 19 39 17 154 59 322 116 153
51 401 120 590 164 293 67 299 68 570 105 626 87 1060 87 1714 1 189 -24 331
-53 586 -116 66 -17 145 -36 175 -43 115 -27 493 -154 665 -224 28 -12 97 -40
155 -64 124 -50 536 -254 665 -328 302 -174 650 -404 840 -555 50 -39 110 -85
135 -102 25 -17 86 -66 136 -109 50 -44 122 -105 160 -138 38 -32 134 -120
212 -195 79 -75 150 -139 157 -143 13 -8 405 -422 490 -518 139 -158 227 -263
293 -349 40 -53 91 -120 115 -150 154 -195 550 -776 628 -921 13 -25 28 -49
32 -55 20 -25 120 -198 217 -375 52 -95 330 -654 330 -663 0 -3 17 -43 39 -89
21 -45 51 -114 66 -153 15 -38 33 -83 40 -100 7 -16 20 -46 28 -65 23 -52 141
-368 157 -417 7 -24 16 -43 20 -43 10 0 10 138 1 163 -9 21 -9 21 -16 -5 -10
-37 -26 -36 -19 1 4 16 1 32 -5 35 -6 4 -11 14 -11 22 0 8 4 13 9 10 5 -4 6 4
3 16 -5 19 -7 20 -10 6 -7 -35 -24 -18 -20 19 4 37 -15 93 -33 93 -5 0 -9 12
-9 28 0 15 -5 34 -10 42 -8 13 -10 13 -10 1 0 -11 -3 -12 -12 -3 -8 8 -8 15 2
27 8 10 9 15 1 15 -6 0 -11 13 -11 29 0 17 -5 33 -10 36 -6 4 -8 11 -4 16 10
16 -5 57 -28 79 -17 15 -24 17 -30 8 -4 -8 -8 13 -9 47 -1 117 -4 138 -17 143
-19 6 -61 50 -54 56 5 6 -9 60 -33 126 l-13 35 -10 -25 c-9 -24 -10 -24 -20
15 -6 22 -14 84 -18 138 -4 74 -9 97 -20 97 -10 0 -14 -14 -15 -47 0 -36 -3
-43 -9 -28 -7 17 -9 17 -9 3 -1 -10 -4 -18 -9 -18 -4 0 -6 20 -4 45 3 28 0 45
-7 45 -6 0 -11 18 -11 40 0 33 -3 40 -20 40 -14 0 -18 -5 -13 -17 6 -16 5 -17
-9 -2 -9 8 -19 34 -23 57 -4 23 -11 42 -16 42 -5 0 -9 18 -9 40 0 22 -4 40
-10 40 -5 0 -10 14 -10 30 0 28 2 30 40 30 22 0 40 5 40 10 0 6 -20 10 -44 10
-36 0 -46 -4 -51 -21 -9 -26 -19 -17 -21 19 -1 15 -2 35 -3 44 0 9 -10 20 -21
23 -14 4 -20 16 -21 38 -1 18 -3 24 -6 15 -2 -10 -9 -18 -14 -18 -10 0 -22 40
-17 60 2 8 -7 19 -19 25 -39 17 -25 27 34 23 56 -3 57 -3 65 28 l8 32 64 -5
c54 -5 66 -3 83 14 11 11 23 27 27 34 5 11 7 11 12 2 7 -15 84 -18 84 -3 0 6
9 10 20 10 10 0 23 7 28 16 6 11 27 18 61 22 28 2 51 8 51 13 0 5 36 9 80 9
71 0 80 2 80 18 0 11 9 27 20 37 19 17 21 17 40 0 20 -18 22 -18 66 3 24 12
60 22 79 22 19 0 35 5 35 10 0 6 9 10 20 10 11 0 23 7 26 15 4 8 12 15 20 15
8 0 14 7 14 15 0 19 26 20 37 2 14 -24 54 -27 94 -6 21 10 54 19 74 19 19 0
35 5 35 10 0 6 6 10 13 10 7 0 17 10 22 22 12 27 45 37 45 14 0 -20 3 -20 50
4 44 22 106 27 113 8 3 -9 7 -6 13 6 9 23 40 56 53 56 5 0 11 7 13 16 3 14 7
13 30 -5 14 -12 36 -21 47 -21 21 0 53 25 65 51 5 11 7 11 12 2 3 -7 23 -13
45 -13 31 0 39 4 39 19 0 28 54 46 128 42 57 -3 64 -1 69 18 5 21 43 30 43 11
0 -5 18 -10 40 -10 29 0 40 4 40 15 0 16 42 31 59 21 6 -4 33 5 60 19 53 26
117 33 123 13 8 -22 35 0 42 32 6 31 8 32 40 27 26 -4 39 -1 52 14 14 16 31
19 101 19 76 0 83 2 83 20 0 11 5 20 11 20 6 0 22 9 37 20 l25 20 24 -22 23
-21 23 21 c25 24 92 31 99 10 7 -21 35 0 41 31 4 18 13 31 21 31 8 0 16 7 18
16 3 14 7 13 30 -5 14 -12 36 -21 47 -21 21 0 53 25 65 51 5 11 7 11 12 2 3
-7 23 -13 45 -13 32 0 39 4 39 19 0 10 8 21 18 24 9 4 27 14 40 23 21 16 22
15 22 -5 0 -26 1 -26 50 -1 43 22 106 27 112 8 7 -21 35 0 41 31 6 26 11 31
36 31 16 0 36 -7 45 -15 28 -28 59 -18 80 25 18 38 36 52 36 30 0 -5 18 -10
40 -10 22 0 40 5 40 10 0 6 9 10 19 10 13 0 21 8 23 23 4 31 41 35 56 5 l11
-23 7 23 c8 26 19 28 33 5 9 -16 10 -16 11 5 0 21 4 22 80 22 47 0 80 4 80 10
0 6 16 10 35 10 20 0 43 6 51 13 35 28 52 45 58 58 5 11 7 11 12 2 3 -7 23
-13 44 -13 21 0 40 -5 42 -12 7 -21 35 0 41 32 5 23 11 31 25 28 11 -2 26 3
36 11 14 12 19 11 35 -4 25 -21 58 -12 73 21 11 24 28 33 28 14 0 -5 18 -10
40 -10 22 0 40 5 40 10 0 6 9 10 20 10 12 0 20 7 20 18 0 9 5 24 10 32 8 12
15 9 40 -20 28 -32 32 -34 44 -18 7 10 25 22 39 27 15 6 27 17 27 26 0 11 11
15 40 15 27 0 43 5 46 15 4 8 12 15 19 15 7 0 15 5 17 11 2 7 16 5 41 -7 36
-17 38 -17 82 4 25 12 61 22 80 22 27 0 35 4 35 18 0 11 14 25 35 35 43 21 45
21 45 2 0 -18 5 -19 33 -3 12 7 36 12 52 12 23 1 31 6 33 24 4 25 42 32 42 7
0 -11 11 -15 40 -15 22 0 40 5 40 10 0 6 9 10 19 10 11 0 23 5 26 10 3 6 15
10 26 10 11 0 37 9 59 20 43 22 106 27 112 8 7 -21 35 0 41 31 4 18 13 31 22
31 8 0 15 5 15 12 0 6 9 3 20 -7 20 -18 21 -18 43 3 20 19 35 22 100 22 57 0
77 3 77 13 0 13 52 57 66 57 4 0 17 -12 30 -27 l23 -27 21 21 c11 12 20 27 20
33 0 5 18 10 40 10 22 0 40 -5 40 -11 0 -20 35 -4 35 16 1 41 62 84 79 56 12
-19 61 -19 98 0 20 10 53 19 73 19 28 0 35 4 35 20 0 11 5 20 11 20 6 0 23 9
37 21 16 12 28 16 30 10 2 -6 24 -11 49 -11 36 0 46 4 50 20 7 26 39 26 46 -1
9 -33 49 -21 59 17 5 20 16 34 30 38 37 10 86 7 90 -5 6 -17 45 6 53 31 7 21
25 28 25 10 0 -5 18 -10 39 -10 22 0 41 -5 43 -12 2 -6 12 -9 21 -5 12 4 17
18 18 44 0 21 4 47 9 58 6 17 9 14 15 -18 4 -22 11 -34 15 -28 3 7 13 9 21 6
9 -3 24 3 34 15 15 17 30 20 102 20 49 0 83 4 83 10 0 6 9 10 19 10 11 0 23 5
26 10 3 6 17 10 31 10 23 0 55 24 68 51 5 11 7 11 12 2 7 -15 84 -18 84 -3 0
6 9 10 20 10 11 0 23 7 26 15 4 8 18 15 34 15 16 0 35 -7 44 -15 8 -8 17 -15
21 -15 12 0 70 52 79 71 5 11 7 11 12 2 3 -7 22 -13 43 -13 31 0 39 5 55 34
15 29 24 35 47 33 23 -2 29 -7 29 -24 0 -40 27 -26 34 17 7 43 25 55 27 18 0
-13 3 -17 6 -10 2 7 22 12 44 12 21 0 39 5 39 10 0 6 9 10 20 10 11 0 23 7 27
15 3 9 13 15 23 13 9 -2 24 3 34 11 14 12 19 11 37 -4 19 -18 21 -18 65 3 24
12 60 22 79 22 19 0 35 5 35 10 0 6 9 10 20 10 10 0 23 7 28 17 7 11 29 18 78
22 62 5 69 8 72 29 4 25 42 32 42 7 0 -11 11 -15 38 -15 31 0 41 5 52 25 15
28 45 33 54 10 3 -8 16 -15 28 -15 22 1 22 1 4 15 -24 18 -19 24 31 36 54 12
111 11 115 -3 8 -22 35 0 42 32 5 27 10 31 27 27 12 -3 39 3 60 14 28 14 59
19 114 19 43 0 75 4 75 10 0 6 6 10 14 10 8 0 17 9 21 19 10 32 35 34 62 4 22
-26 25 -27 37 -11 7 10 25 22 39 27 15 6 27 17 27 26 0 8 9 15 20 15 11 0 20
-4 20 -10 0 -5 19 -10 43 -10 36 0 43 -3 44 -21 3 -30 11 -35 33 -21 11 7 24
12 30 12 14 0 12 -27 -2 -33 -19 -7 4 -41 28 -42 22 0 74 -38 74 -54 0 -15 34
-31 64 -31 27 0 35 -15 13 -23 -6 -3 9 -4 34 -2 40 2 46 0 42 -15 -3 -10 0
-21 5 -24 6 -3 8 -15 5 -26 -3 -11 0 -20 6 -20 6 0 11 11 11 25 0 18 5 25 20
25 13 0 20 -7 20 -19 0 -39 11 -51 49 -51 40 0 61 -14 61 -42 0 -10 5 -18 10
-18 6 0 10 6 8 14 -4 18 0 19 35 11 20 -5 25 -11 18 -18 -20 -20 -12 -27 29
-27 l40 0 0 -40 0 -40 40 0 c22 0 40 -4 40 -10 0 -5 16 -10 35 -10 22 0 44 -8
57 -20 26 -24 38 -25 38 -5 0 16 9 19 35 9 13 -5 14 -8 3 -15 -9 -6 -3 -9 18
-9 35 0 97 -27 89 -40 -4 -7 7 -13 70 -35 16 -5 17 -5 5 4 -18 12 -7 26 15 17
10 -3 13 -11 9 -18 -6 -10 -4 -11 7 0 7 6 20 12 29 11 10 0 11 -2 3 -6 -7 -2
-13 -11 -13 -19 0 -10 12 -14 40 -14 33 0 42 -4 52 -25 9 -20 14 -23 26 -13
11 10 17 9 27 -5 10 -14 36 -18 134 -24 88 -4 121 -10 121 -19 0 -17 18 -21
118 -29 45 -4 82 -12 82 -17 0 -6 11 -8 24 -6 21 4 25 0 32 -36 l7 -41 10 38
c11 39 37 51 37 17 0 -22 20 -26 38 -8 9 9 15 9 24 0 7 -7 20 -12 29 -12 9 0
16 -6 15 -14 0 -8 4 -15 9 -15 6 0 9 7 7 15 -2 8 5 14 18 14 11 0 20 -6 20
-13 0 -8 15 -11 48 -10 35 2 42 1 27 -6 -16 -8 -17 -10 -3 -10 9 -1 20 4 23 9
9 15 52 12 69 -5 17 -17 86 -20 86 -4 0 8 11 9 33 4 17 -4 59 -8 92 -9 38 0
64 -6 71 -15 8 -10 37 -13 110 -14 73 0 88 -2 59 -7 -25 -5 -11 -5 35 -2 41 3
83 5 93 4 9 -1 33 -3 52 -4 19 -1 35 -4 35 -7 0 -4 32 -7 70 -9 48 -2 70 1 70
9 0 7 9 9 26 5 17 -5 23 -3 19 4 -4 6 6 10 26 10 25 0 30 -3 22 -11 -9 -9 -8
-16 3 -27 11 -11 18 -12 27 -3 7 7 46 10 107 9 93 -2 93 -2 20 -5 -41 -2 -79
-9 -85 -15 -11 -12 114 -3 175 12 19 5 75 10 123 11 68 2 90 0 98 -12 7 -12
10 -12 18 0 6 10 20 11 51 6 40 -7 59 2 60 26 0 3 -65 6 -145 8 -80 1 -145 -2
-145 -6 0 -10 -99 -5 -125 7 -11 5 -171 14 -355 20 -184 6 -342 13 -350 15 -8
2 -80 11 -160 20 -101 11 -155 12 -178 6 -30 -9 -32 -8 -20 6 11 14 10 15 -10
9 -12 -4 -22 -3 -22 2 0 6 -24 13 -52 16 -109 14 -195 28 -241 41 -26 8 -54
12 -62 8 -9 -3 -22 0 -30 7 -8 7 -21 10 -29 7 -8 -3 -28 0 -43 8 -15 8 -53 18
-83 24 -30 5 -102 24 -160 41 -58 18 -118 36 -135 40 -198 53 -662 262 -820
370 -22 15 -54 34 -70 43 -93 47 -375 263 -519 397 -140 130 -333 336 -455
485 -85 106 -289 401 -334 485 -11 19 -32 55 -47 80 -51 82 -79 133 -169 315
-154 310 -262 571 -346 835 -20 63 -42 130 -50 148 -8 18 -15 41 -15 51 0 10
-9 44 -20 77 -29 83 -137 518 -145 584 -4 30 -13 78 -21 105 -12 45 -39 208
-79 480 -54 369 -84 984 -70 1410 l7 215 -9116 0 -9116 0 0 -2570z"/>
<path d="M31989 25068 c-2 -37 -9 -675 -13 -1188 -3 -322 -8 -3078 -11 -6125
-3 -3047 -7 -6651 -10 -8010 -3 -1358 -6 -3568 -7 -4910 -1 -1342 -4 -2638 -8
-2880 -6 -409 -6 -385 -8 350 -4 1107 -13 2353 -27 3675 -5 457 -13 614 -30
563 -8 -25 -21 -30 -28 -10 -3 6 -6 2 -6 -10 l-1 -23 -2840 0 c-2190 0 -2840
3 -2840 12 0 6 -6 3 -14 -8 -15 -20 -21 -14 -28 30 -2 11 -9 21 -17 24 -22 7
-3 -69 21 -86 15 -11 19 -23 16 -47 -2 -21 0 -31 7 -29 12 5 32 -28 37 -60 2
-11 9 -21 17 -24 8 -3 11 0 7 7 -4 6 -2 19 3 28 9 16 11 15 12 -7 1 -14 0 -33
-1 -44 -1 -10 1 -28 4 -41 5 -18 11 -21 32 -17 24 4 25 3 15 -16 -16 -29 -14
-58 5 -77 10 -10 14 -26 11 -41 -3 -19 3 -35 24 -59 23 -26 29 -42 29 -80 0
-38 3 -46 15 -41 12 4 15 -4 15 -39 0 -25 4 -45 8 -45 5 0 6 -20 2 -45 -5 -35
-4 -43 6 -34 19 15 25 -2 31 -89 3 -42 11 -87 19 -98 9 -15 13 -58 13 -133 0
-61 5 -120 11 -131 8 -14 8 -20 0 -20 -6 0 -4 -7 4 -16 9 -8 16 -30 15 -47 0
-18 3 -142 6 -277 4 -135 8 -330 9 -435 1 -104 5 -195 8 -200 10 -16 26 -525
25 -800 0 -132 -2 -231 -4 -220 -2 11 -8 29 -14 40 -5 11 -16 193 -24 405 -8
212 -19 473 -25 580 -5 107 -11 321 -14 475 -7 420 -7 413 -15 385 -7 -22 -8
-19 -14 20 -3 25 -9 90 -12 145 -4 55 -15 145 -27 200 -73 364 -104 464 -213
690 -128 265 -302 478 -503 614 -105 70 -135 85 -236 112 -39 10 -111 30 -161
45 -49 14 -115 32 -145 39 -30 8 -179 45 -330 83 -425 108 -524 132 -655 158
-38 7 -119 25 -180 38 -60 14 -139 31 -175 36 -36 6 -72 14 -80 17 -8 3 -22 7
-30 8 -64 10 -205 37 -211 41 -4 2 -49 11 -101 19 -51 7 -165 27 -253 44 -88
17 -187 33 -220 36 -33 4 -87 13 -120 20 -63 15 -212 37 -408 60 -65 8 -126
16 -135 19 -9 3 -37 8 -62 11 -25 2 -79 9 -120 14 -124 16 -259 30 -365 41
-55 5 -131 14 -170 19 -38 6 -187 20 -330 31 l-260 21 -50 35 c-27 20 -83 59
-124 87 -164 115 -464 344 -585 447 -49 41 -128 106 -175 144 -294 236 -974
892 -1021 983 -21 42 -42 54 -55 32 -4 -5 -2 -56 4 -112 64 -611 94 -1467 72
-2107 -18 -531 -51 -1027 -81 -1205 -5 -33 -14 -121 -20 -195 -6 -74 -17 -173
-25 -220 -8 -47 -24 -155 -35 -240 -27 -201 -75 -511 -140 -910 -21 -129 -48
-298 -60 -375 -12 -77 -31 -182 -41 -234 -10 -51 -19 -110 -19 -131 0 -21 -9
-80 -19 -131 -11 -52 -24 -128 -30 -169 -6 -41 -20 -136 -31 -210 -12 -74 -25
-166 -30 -205 -6 -38 -14 -92 -20 -120 -6 -27 -19 -115 -30 -195 -10 -80 -26
-190 -35 -245 -26 -167 -45 -296 -55 -375 -6 -41 -19 -133 -30 -205 -12 -71
-25 -165 -31 -207 -22 -188 -31 -252 -49 -388 -11 -80 -27 -201 -35 -270 -8
-69 -26 -213 -40 -320 -14 -107 -34 -280 -45 -385 -10 -104 -24 -214 -30 -244
-5 -29 -10 -62 -10 -72 0 -19 112 -19 4307 -19 l4306 0 -7 268 c-4 147 -9 335
-12 417 -6 159 1 198 11 55 2 -47 8 -119 12 -160 3 -41 7 -156 8 -255 2 -99 3
-213 4 -252 l1 -73 2665 0 2665 0 0 12540 c0 6897 -2 12540 -5 12540 -3 0 -5
-6 -6 -12z m-12068 -21049 c8 -4 58 -10 110 -14 85 -6 101 -10 169 -46 124
-67 123 -66 116 -189 -3 -58 -12 -130 -20 -160 -9 -30 -21 -102 -27 -160 -7
-58 -21 -132 -33 -165 -18 -51 -28 -64 -70 -91 -70 -47 -139 -56 -284 -39
-138 16 -181 30 -261 84 -42 29 -65 53 -81 86 -23 48 -23 61 10 245 5 30 14
96 19 145 28 237 40 270 111 292 102 31 194 36 241 12z m6619 -819 c7 0 20
-57 20 -90 0 -8 0 -25 0 -37 0 -13 -4 -23 -9 -23 -5 0 -5 -15 -1 -34 4 -18 7
-76 6 -129 -1 -52 2 -93 5 -91 24 15 43 -891 22 -1026 -9 -55 -15 118 -28 760
-2 124 -6 236 -9 250 -7 30 -13 139 -19 345 -3 83 -3 133 0 113 2 -21 8 -38
13 -38z m-6723 -412 c-9 -46 -19 -115 -22 -155 -3 -40 -11 -87 -16 -105 -5
-18 -14 -67 -19 -110 -5 -42 -18 -104 -29 -139 -12 -34 -21 -75 -21 -90 0 -31
-19 -51 -21 -22 -2 46 3 103 16 153 7 30 17 89 20 130 4 41 11 85 16 97 5 13
13 62 19 110 12 103 50 237 63 224 6 -6 3 -43 -6 -93z m-424 -715 c2 -5 -11
-28 -30 -53 -18 -25 -36 -53 -39 -62 -4 -11 -16 -18 -30 -18 -19 0 -24 5 -24
24 0 45 -46 52 -79 12 -17 -20 -30 -20 -53 0 -14 14 -20 14 -33 4 -34 -28 -98
22 -82 64 8 21 80 21 112 0 20 -13 29 -14 59 -3 30 11 38 10 61 -5 27 -18 28
-18 69 12 42 31 61 38 69 25z m256 -96 c8 -26 20 -47 26 -47 7 0 29 13 50 30
39 31 73 46 82 36 8 -8 -17 -43 -84 -113 -61 -65 -101 -83 -89 -40 18 62 19
77 3 77 -8 0 -17 -7 -21 -15 -7 -20 -55 -19 -63 1 -4 10 5 27 26 46 19 18 31
39 31 54 0 41 23 23 39 -29z m578 -118 c6 -6 9 -18 6 -25 -7 -18 15 -18 33 1
9 8 26 13 42 10 15 -2 52 -7 82 -10 80 -8 87 -15 66 -60 -22 -45 -43 -54 -62
-26 -13 18 -19 19 -36 10 -18 -10 -24 -8 -37 8 -14 16 -29 19 -101 18 l-85 0
-3 28 c-2 16 2 35 9 43 14 17 70 19 86 3z m349 -60 c4 -7 20 -9 40 -6 35 6
100 -8 109 -23 10 -17 -6 -55 -31 -74 -25 -18 -26 -18 -48 3 -12 12 -29 21
-38 21 -9 0 -19 11 -22 25 -8 33 -39 32 -65 -1 -26 -33 -51 -26 -51 15 0 23 6
32 28 39 37 14 69 14 78 1z"/>
<path d="M14135 23905 c-71 -7 -170 -20 -220 -29 -49 -10 -121 -23 -160 -30
-114 -22 -249 -64 -508 -159 -103 -38 -325 -154 -477 -248 -338 -209 -569
-403 -964 -809 -463 -476 -875 -1023 -1149 -1527 -163 -298 -316 -622 -415
-878 -84 -217 -108 -280 -149 -395 -24 -69 -55 -159 -69 -200 -13 -41 -41
-124 -60 -185 -20 -60 -42 -130 -49 -155 -6 -25 -42 -144 -79 -265 -71 -231
-113 -370 -126 -420 -5 -16 -29 -100 -54 -185 -26 -85 -53 -180 -60 -210 -7
-30 -29 -111 -49 -180 -56 -199 -99 -360 -112 -425 -7 -33 -29 -125 -49 -205
-19 -80 -40 -165 -45 -190 -6 -25 -21 -92 -35 -150 -13 -58 -29 -132 -35 -165
-5 -33 -22 -114 -36 -180 -24 -113 -47 -240 -65 -365 -4 -30 -17 -100 -28
-155 -11 -55 -23 -136 -27 -180 -4 -44 -11 -96 -16 -115 -14 -57 -57 -414 -69
-575 -6 -82 -15 -204 -21 -270 -5 -66 -13 -221 -19 -345 -5 -124 -12 -248 -15
-275 -3 -28 -10 -167 -15 -310 -15 -444 -81 -750 -224 -1035 -82 -164 -162
-271 -352 -475 -219 -236 -362 -457 -385 -593 -11 -72 -11 -208 1 -291 10 -70
87 -239 162 -351 48 -73 263 -300 284 -300 31 0 10 39 -60 113 -169 178 -246
349 -246 546 0 202 65 362 206 510 75 79 165 151 189 151 4 0 -37 -47 -93
-104 -109 -112 -154 -176 -195 -276 -39 -97 -49 -146 -49 -242 0 -169 66 -347
185 -493 76 -94 235 -249 320 -312 160 -117 401 -227 597 -271 107 -25 132
-26 360 -27 206 0 254 3 302 18 31 9 64 17 75 17 10 0 97 34 193 76 342 147
477 194 563 194 91 0 196 -42 250 -101 20 -21 38 -21 45 0 5 16 -89 108 -131
127 -18 9 -43 22 -57 30 -35 21 -233 14 -275 -9 -28 -16 -106 -25 -92 -10 4 3
44 19 90 34 224 76 377 12 606 -253 201 -232 396 -337 624 -338 158 0 283 31
547 135 175 69 301 106 371 107 66 1 138 -29 233 -95 58 -42 202 -110 256
-121 14 -3 60 -8 104 -10 43 -3 81 -8 84 -10 2 -3 4 -44 3 -90 -1 -47 3 -103
10 -124 11 -37 9 -45 -19 -100 -55 -108 -89 -310 -63 -377 l8 -20 6 20 c3 11
10 46 16 78 6 31 16 67 22 79 l12 22 8 -22 c15 -39 28 -306 22 -430 -7 -138
-2 -151 99 -278 93 -118 454 -474 608 -600 485 -395 940 -637 1525 -809 249
-73 279 -78 403 -67 l109 10 244 119 c523 256 1011 536 1294 743 206 150 305
231 415 340 138 136 229 256 293 383 46 91 48 108 29 257 -35 261 -42 328 -42
394 0 45 -7 94 -19 128 -14 41 -21 99 -26 226 l-7 170 69 0 c43 -1 82 5 104
15 68 32 365 96 444 96 70 0 312 -41 370 -62 73 -27 111 -31 119 -11 11 29
-22 50 -131 84 -173 53 -119 68 93 25 140 -28 167 -38 354 -128 175 -84 337
-137 417 -137 20 0 61 -12 92 -27 54 -27 62 -28 196 -26 125 1 149 4 220 29
145 50 282 138 505 323 141 118 222 162 345 187 81 16 134 15 230 -6 63 -13
109 -35 256 -120 167 -98 229 -118 402 -131 408 -30 732 59 1027 282 131 99
172 140 262 259 116 155 181 275 252 470 31 85 31 85 30 295 0 205 0 212 -28
290 -16 44 -47 114 -69 155 -69 130 -236 365 -334 471 -51 56 -92 104 -89 107
7 6 49 -21 111 -73 28 -23 111 -84 185 -136 215 -149 294 -242 347 -411 22
-70 26 -102 26 -208 1 -123 -22 -272 -44 -286 -5 -3 -9 -14 -9 -25 0 -21 -31
-94 -77 -185 -19 -37 -24 -58 -19 -78 6 -26 8 -27 29 -13 12 8 31 32 42 53 94
178 132 263 172 388 23 70 26 100 27 216 1 152 -8 189 -76 322 -27 53 -67 106
-125 167 -84 90 -236 225 -303 271 -80 54 -302 231 -400 319 -364 325 -564
629 -744 1131 -53 147 -102 332 -111 415 -4 33 -17 119 -30 190 -13 72 -31
184 -40 250 -9 66 -34 231 -56 366 -21 136 -39 261 -39 279 0 18 -7 58 -15 89
-8 31 -21 99 -29 151 -8 52 -22 138 -30 191 -9 53 -29 161 -45 240 -16 79 -33
167 -36 194 -4 28 -14 77 -22 110 -8 32 -28 127 -44 210 -56 292 -205 921
-285 1200 -82 290 -208 682 -279 870 -14 39 -44 117 -65 175 -21 58 -48 128
-60 155 -12 28 -39 91 -60 140 -201 481 -427 924 -667 1310 -112 179 -178 282
-236 364 -33 47 -85 122 -116 166 -30 44 -94 130 -141 190 -47 61 -103 133
-125 161 -220 283 -713 771 -1013 1002 -491 378 -893 619 -1357 814 -215 90
-546 187 -715 208 -47 6 -110 15 -140 21 -75 13 -467 13 -565 -1 -44 -6 -127
-18 -185 -25 -91 -12 -159 -26 -365 -76 -64 -16 -198 -58 -222 -71 -17 -8 -29
-8 -48 0 -51 23 -204 71 -405 126 -30 8 -77 18 -105 21 -27 4 -75 14 -105 21
-161 42 -552 61 -785 39z m1520 -5425 c17 -33 45 -39 65 -15 14 17 50 20 50 4
0 -6 -5 -20 -11 -32 -10 -18 -8 -24 20 -47 37 -32 39 -47 6 -62 -26 -12 -41
-41 -30 -58 3 -6 -1 -13 -9 -16 -10 -4 -30 6 -51 25 l-36 31 -53 -30 c-29 -17
-58 -30 -64 -30 -18 0 -14 22 8 50 23 30 26 50 6 50 -8 0 -22 7 -31 16 -21 21
-6 40 40 48 30 6 35 11 35 36 0 65 29 80 55 30z m-1166 -870 c52 -26 123 -91
180 -165 67 -87 97 -142 157 -290 65 -162 57 -185 -27 -77 -75 95 -211 229
-301 296 -53 40 -75 62 -71 73 5 12 15 13 51 8 l45 -7 -7 43 c-7 41 -39 99
-56 99 -4 0 -10 9 -13 20 -6 25 -5 25 42 0z m2393 8 c3 -7 -4 -21 -13 -32 -10
-10 -16 -22 -14 -26 3 -4 -4 -15 -15 -25 -11 -10 -20 -30 -20 -45 0 -25 2 -26
48 -25 26 1 52 4 58 7 5 4 16 3 24 -2 12 -7 11 -10 -5 -16 -11 -4 -29 -16 -40
-25 -11 -10 -48 -39 -83 -65 -77 -56 -202 -180 -278 -274 -31 -38 -60 -70 -65
-70 -18 0 -8 49 32 145 89 220 187 353 329 447 31 21 37 21 42 6z m-2919 -202
c40 -8 102 -20 139 -26 37 -7 66 -15 63 -19 -2 -4 16 -13 41 -19 44 -12 58
-34 28 -46 -27 -10 -49 -7 -93 15 -37 18 -53 19 -105 13 -33 -5 -70 -8 -80 -9
-28 0 -34 -34 -32 -174 l2 -122 -51 6 c-27 4 -58 11 -67 16 -9 5 -32 9 -51 9
-22 0 -37 6 -41 15 -3 8 -12 15 -20 15 -17 0 -82 70 -91 99 -3 12 -11 18 -17
15 -6 -4 -8 1 -3 15 4 13 2 21 -5 21 -7 0 -10 7 -6 15 3 8 1 15 -4 15 -6 0 -5
11 2 25 9 21 9 29 -5 42 -23 23 -30 12 -28 -49 2 -90 25 -140 96 -206 166
-156 419 -153 568 7 64 68 91 130 83 186 -6 38 -5 43 16 48 12 4 34 0 48 -7
61 -32 180 -102 233 -138 78 -53 295 -236 308 -259 18 -34 0 -38 -55 -14 -93
41 -227 56 -319 36 -23 -5 -71 -15 -107 -22 -36 -6 -157 -34 -270 -61 -386
-93 -644 -83 -897 37 -104 49 -171 106 -239 203 -45 65 -49 87 -17 99 10 3 59
23 108 43 274 115 373 149 430 150 22 0 56 4 75 9 19 6 53 12 74 16 22 3 42 8
45 10 10 11 176 4 244 -9z m3652 4 c22 -6 60 -13 85 -16 46 -5 119 -22 132
-30 4 -3 2 -14 -5 -24 -8 -14 -18 -18 -31 -14 -21 7 -75 7 -165 1 -60 -4 -82
-24 -56 -51 11 -10 15 -36 15 -90 l0 -76 -32 -1 c-18 -1 -25 -3 -15 -6 14 -4
16 -8 6 -19 -6 -8 -12 -24 -13 -37 0 -12 -7 -23 -13 -23 -7 -1 -16 -3 -20 -4
-5 -1 -12 -2 -17 -1 -4 1 -23 2 -42 3 -19 1 -39 7 -45 15 -6 7 -25 13 -42 13
-17 0 -38 6 -46 14 -9 8 -22 16 -30 18 -17 4 -71 61 -71 75 0 5 -11 19 -25 31
-26 23 -32 51 -15 68 6 6 4 18 -7 33 -15 23 -17 23 -29 6 -25 -34 -1 -121 54
-193 48 -63 186 -143 215 -125 6 3 7 1 4 -4 -9 -15 82 -21 157 -11 114 15 227
90 284 186 23 41 27 58 27 127 l0 80 34 -3 c27 -2 247 -85 414 -156 48 -21 48
-44 0 -104 -124 -158 -198 -207 -391 -262 -141 -41 -144 -41 -310 -41 -182 0
-220 5 -482 71 -190 47 -371 80 -443 80 -57 0 -204 -33 -221 -50 -13 -13 -46
-13 -46 -1 0 10 44 53 158 155 135 122 453 306 527 306 20 0 46 6 58 14 12 8
58 20 102 26 44 7 91 16 105 20 36 12 188 11 235 0z m1585 -211 c0 -11 14 -33
31 -49 l31 -28 -34 -34 c-26 -26 -39 -33 -53 -27 -11 4 -34 8 -52 8 -56 2 -56
59 0 119 36 37 77 44 77 11z m-1460 -713 c0 -23 6 -31 45 -64 14 -12 12 -17
-19 -48 -31 -30 -38 -33 -61 -24 -15 6 -39 10 -55 10 -28 0 -29 2 -28 46 0 41
4 48 41 75 50 36 77 38 77 5z m-5450 -206 c0 -15 7 -35 15 -46 8 -10 15 -30
15 -42 0 -22 -3 -23 -40 -17 -40 7 -40 6 -40 -24 0 -43 -24 -50 -58 -19 -15
14 -35 28 -44 31 -10 4 -18 11 -18 18 0 15 33 69 42 69 4 0 8 12 8 28 0 27 1
27 60 27 58 0 60 -1 60 -25z m4350 -314 c14 0 33 4 43 8 14 7 17 3 17 -23 0
-16 8 -46 17 -66 21 -45 8 -65 -32 -47 -23 11 -26 9 -35 -14 -6 -14 -10 -29
-10 -34 0 -23 -25 -19 -49 7 -15 17 -32 32 -39 34 -6 2 -14 18 -17 34 -5 26
-2 32 26 48 26 15 30 21 25 43 -6 23 -5 25 11 18 10 -4 29 -8 43 -8z m-1635
-346 c3 -5 17 -10 30 -10 27 0 27 -4 3 -113 l-10 -48 -47 7 c-53 7 -78 26 -97
71 -23 53 -19 63 26 63 29 0 42 5 50 20 11 21 35 27 45 10z m-3637 -492 c3
-17 -2 -23 -70 -79 -44 -36 -70 -99 -66 -159 4 -57 22 -61 48 -10 46 90 132
161 170 140 36 -19 26 -42 -38 -83 -52 -34 -102 -101 -102 -137 0 -53 57 -46
106 13 26 31 118 110 152 131 17 10 42 -11 42 -35 0 -10 -29 -47 -64 -82 -51
-51 -67 -76 -85 -127 -27 -82 -27 -110 -1 -110 28 0 64 40 80 90 11 32 18 40
34 38 23 -3 31 -27 22 -64 -9 -34 -79 -109 -116 -124 -37 -15 -39 -43 -9 -97
69 -126 176 -156 258 -74 56 56 75 121 66 227 -6 80 -6 84 14 84 34 0 51 -38
51 -113 0 -131 -50 -231 -142 -286 -114 -69 -274 22 -328 185 -18 53 -30 71
-60 92 -52 37 -81 83 -88 139 -3 27 -20 75 -40 111 -30 55 -34 70 -29 110 9
74 42 138 99 193 53 51 90 61 96 27z m8645 -32 c38 -38 61 -71 76 -111 28 -74
27 -120 -6 -180 -16 -32 -26 -64 -25 -87 2 -54 -24 -113 -68 -151 -28 -24 -39
-42 -44 -75 -13 -85 -75 -173 -150 -216 -92 -53 -165 -41 -242 38 -64 66 -88
130 -88 238 -1 85 14 116 52 104 18 -6 20 -15 19 -99 -2 -79 2 -99 22 -141 28
-56 90 -106 133 -106 60 0 135 57 174 132 23 45 15 70 -26 81 -48 12 -83 40
-119 94 -35 53 -38 69 -14 95 24 26 31 23 45 -23 16 -55 67 -109 102 -109 35
0 41 20 26 78 -22 81 -49 125 -113 184 -58 53 -60 58 -49 82 6 14 18 26 25 26
23 0 96 -69 138 -131 22 -32 47 -59 55 -59 26 0 54 20 54 39 0 28 -69 116
-112 142 -21 13 -41 32 -44 43 -8 25 18 50 44 42 19 -6 99 -89 134 -137 15
-22 18 -23 32 -9 14 14 15 21 2 62 -18 61 -49 103 -97 134 -36 22 -49 50 -32
67 16 17 45 3 96 -47z m-4183 -1842 c45 -8 118 -29 163 -46 45 -17 104 -39
131 -48 54 -18 78 -42 60 -60 -8 -8 -19 -7 -40 1 -19 8 -97 13 -226 13 -184 1
-199 2 -218 21 -16 17 -19 28 -13 72 5 50 12 58 49 62 7 0 49 -6 94 -15z
m-180 -14 c6 -12 10 -40 8 -63 -4 -58 -26 -67 -163 -66 -232 1 -249 24 -70 92
149 58 209 67 225 37z m5500 -2508 c0 -14 -119 -124 -187 -174 -33 -25 -91
-59 -127 -77 -68 -33 -240 -81 -288 -81 -43 0 -33 17 14 25 59 10 187 58 265
100 38 19 122 75 188 124 120 89 135 98 135 83z"/>
<path d="M18470 10193 c0 -18 40 -66 98 -119 98 -88 187 -207 249 -333 31 -62
61 -132 68 -155 9 -29 18 -41 31 -41 21 0 21 11 6 80 -11 54 -52 135 -66 132
-6 -1 -10 9 -8 24 2 15 -3 33 -11 40 -7 8 -16 22 -20 32 -3 9 -11 17 -17 17
-5 0 -10 7 -10 16 0 8 -4 13 -9 9 -5 -3 -12 3 -16 14 -3 10 -17 30 -31 45 -14
14 -23 30 -19 36 4 6 3 9 -2 8 -4 -1 -54 44 -110 100 -89 89 -133 120 -133 95z"/>
<path d="M13011 9442 c-50 -78 -633 -648 -826 -807 -33 -27 -125 -106 -204
-175 -79 -69 -185 -156 -235 -195 -51 -38 -154 -117 -228 -175 -132 -102 -373
-277 -433 -315 -19 -12 -60 -21 -120 -26 -49 -4 -148 -13 -220 -19 -71 -6
-199 -20 -283 -30 -84 -11 -183 -20 -220 -20 -37 0 -94 -5 -127 -10 -64 -11
-289 -42 -475 -65 -189 -24 -437 -63 -710 -111 -80 -14 -181 -31 -225 -39
-154 -27 -311 -57 -395 -75 -47 -10 -112 -23 -145 -30 -33 -6 -100 -20 -150
-31 -49 -11 -115 -24 -145 -30 -30 -6 -127 -28 -215 -49 -88 -21 -171 -41
-185 -43 -43 -8 -543 -138 -552 -143 -4 -3 -29 -9 -56 -14 -62 -11 -354 -93
-423 -119 -203 -77 -427 -282 -528 -485 -115 -232 -147 -470 -116 -881 26
-352 24 -371 -130 -1040 -48 -208 -119 -570 -150 -760 -27 -174 -56 -320 -66
-345 -6 -14 -13 -59 -15 -100 -3 -41 -9 -77 -15 -80 -5 -4 -14 -51 -20 -106
-5 -54 -14 -124 -20 -154 -5 -30 -17 -109 -25 -175 -8 -66 -19 -145 -25 -175
-5 -30 -13 -89 -18 -130 -5 -41 -14 -102 -19 -135 -6 -33 -13 -98 -17 -145 -8
-106 -14 -142 -25 -135 -5 3 -10 0 -13 -7 -2 -7 -3 -4 -1 8 2 11 4 67 5 125 1
57 5 127 10 154 14 76 28 166 33 207 2 20 9 44 14 55 5 10 7 24 5 31 -3 6 0
12 6 12 8 0 11 37 10 118 -1 82 2 126 12 143 7 13 16 70 19 126 5 70 12 110
24 128 13 19 18 54 21 138 l3 112 -135 130 c-129 124 -292 307 -466 525 -113
141 -298 417 -387 577 -8 15 -31 54 -51 88 -49 83 -152 288 -179 355 -11 30
-30 73 -40 95 -32 65 -131 316 -145 365 -7 25 -27 83 -43 130 -17 47 -42 126
-57 175 -15 50 -33 110 -41 134 -8 25 -14 54 -14 65 0 12 -9 50 -21 86 -24 78
-38 142 -97 460 -30 160 -45 270 -57 414 -5 76 -14 99 -16 45 -1 -28 -3 -25
-9 16 -4 28 -3 55 1 61 5 6 7 13 5 15 -9 9 -15 114 -22 362 -5 195 -10 257
-19 257 -13 0 -30 -160 -24 -231 1 -18 -1 -45 -6 -59 l-9 -25 -7 30 c-6 27 -7
26 -8 -12 -1 -32 3 -43 14 -43 16 0 17 -10 20 -245 2 -159 15 -306 26 -299 13
8 11 -13 -3 -36 -9 -14 -10 -25 -2 -37 6 -11 7 -34 3 -58 -5 -22 -6 -96 -3
-165 2 -69 1 -119 -2 -112 -4 9 -375 12 -1805 12 l-1799 0 0 -3250 0 -3250
2500 0 2500 0 5 23 c2 12 7 51 9 87 3 36 7 79 9 95 3 17 7 71 11 120 7 99 25
197 35 190 8 -4 -4 -174 -18 -265 -6 -36 -13 -107 -16 -158 l-6 -92 4451 0
4450 0 0 33 c-1 51 -18 218 -39 382 -25 187 -48 381 -56 460 -6 66 -25 210
-55 412 -11 72 -20 153 -21 180 0 26 -4 71 -9 98 -5 28 -25 160 -44 295 -44
306 -53 367 -76 510 -10 63 -26 173 -35 244 -9 71 -18 132 -20 135 -2 4 -8 42
-14 86 -17 125 -50 343 -83 540 -16 99 -34 216 -38 260 -5 44 -15 112 -23 150
-9 39 -22 115 -31 170 -8 55 -36 226 -61 380 -69 423 -114 711 -150 955 -9 63
-23 154 -31 202 -8 48 -19 143 -25 210 -5 68 -14 141 -19 163 -4 22 -11 67
-14 100 -3 33 -13 123 -21 200 -25 230 -54 708 -66 1070 -17 505 -5 1126 31
1645 5 80 14 216 20 302 6 87 15 182 21 213 19 103 -10 125 -60 47z m-7780
-7528 c-1 -44 -5 -104 -11 -134 -6 -30 -17 -129 -25 -220 -8 -91 -15 -166 -15
-167 0 -2 -4 -3 -9 -3 -13 0 -2 298 14 372 8 37 15 94 15 126 0 33 3 74 6 91
11 56 25 18 25 -65z m-75 -651 c-3 -65 -13 -163 -21 -218 -8 -55 -18 -152 -21
-216 -4 -78 -10 -116 -17 -116 -16 0 -7 338 9 358 6 8 14 56 18 107 4 51 11
104 16 118 6 14 10 39 10 55 0 16 3 29 6 29 4 0 4 -53 0 -117z"/>
<path d="M13725 8258 c-2 -7 -18 -63 -34 -124 -49 -177 -132 -407 -216 -604
-89 -208 -145 -458 -145 -645 0 -118 22 -254 59 -363 44 -129 101 -284 146
-392 26 -63 63 -155 82 -204 41 -106 220 -507 231 -518 5 -5 51 5 103 22 455
149 822 344 1149 614 110 90 368 349 449 451 35 44 70 84 78 88 9 5 34 4 61
-4 32 -8 148 -13 362 -16 173 -1 318 -3 321 -3 3 0 27 -34 53 -77 198 -319
445 -550 780 -727 101 -53 465 -216 571 -256 208 -77 400 -141 419 -138 24 4
25 5 137 260 47 107 129 355 158 478 11 47 31 133 46 191 14 59 25 118 25 131
0 13 9 64 19 113 27 124 49 298 46 370 -3 76 -10 124 -40 255 -49 222 -77 395
-105 660 -11 110 -54 353 -71 407 -5 17 -17 34 -25 37 -50 19 -455 -10 -624
-45 -261 -53 -509 -150 -730 -284 -183 -111 -316 -220 -494 -407 l-134 -140
-63 11 c-115 19 -391 34 -535 27 l-141 -6 -67 80 c-109 131 -286 270 -443 349
-223 112 -657 253 -1078 350 -344 80 -343 80 -350 59z"/>
<path d="M877 7203 c486 -2 1280 -2 1765 0 486 1 89 2 -882 2 -971 0 -1368 -1
-883 -2z"/>
<path d="M25036 7195 c-6 -17 -62 -21 -68 -5 -2 6 -9 5 -18 -1 -11 -8 -12 -12
-2 -16 6 -2 12 -11 12 -19 0 -10 14 -14 56 -14 36 0 53 4 49 10 -4 6 -1 17 5
25 10 12 10 16 -1 17 -8 2 1514 5 3381 8 l3395 5 -3401 3 c-3016 2 -3403 0
-3408 -13z"/>
</g>
</svg>
